<?xml version="1.0" encoding="utf-8"?>
<!-- Generator: Adobe Illustrator 16.0.0, SVG Export Plug-In . SVG Version: 6.00 Build 0)  -->
<!DOCTYPE svg PUBLIC "-//W3C//DTD SVG 1.1//EN" "http://www.w3.org/Graphics/SVG/1.1/DTD/svg11.dtd">
<svg version="1.1" id="Layer_1" xmlns="http://www.w3.org/2000/svg" xmlns:xlink="http://www.w3.org/1999/xlink" x="0px" y="0px"
	 width="500px" height="500px" viewBox="0 0 500 500" enable-background="new 0 0 500 500" xml:space="preserve">
<rect x="129" y="117" fill="#FFFFFF" stroke="#ED1C24" stroke-width="2" stroke-miterlimit="10" width="234" height="347"/>
<rect x="141" y="131" fill="#FFFFFF" stroke="#00FF00" stroke-width="2" stroke-miterlimit="10" width="186" height="26"/>
<rect x="327" y="131" fill="#FFFFFF" stroke="#00FF00" stroke-width="2" stroke-miterlimit="10" width="26" height="26"/>
<text transform="matrix(1 0 0 1 146.5366 147.0337)" fill="#666666" font-family="'MyriadPro-Regular'" font-size="12">Add todos by writing here...</text>
<text transform="matrix(1 0 0 1 336.3672 147.0337)" font-family="'MyriadPro-Regular'" font-size="12">&gt;</text>
<rect x="140.5" y="169.5" fill="none" stroke="#0000FF" stroke-miterlimit="10" width="212" height="42"/>
<rect x="140.5" y="220.5" fill="none" stroke="#0000FF" stroke-miterlimit="10" width="212" height="42"/>
<rect x="140.5" y="272.5" fill="none" stroke="#0000FF" stroke-miterlimit="10" width="212" height="42"/>
<rect x="140.5" y="324.5" fill="none" stroke="#0000FF" stroke-miterlimit="10" width="212" height="42"/>
<text transform="matrix(1 0 0 1 336.3672 193.3618)" font-family="'MyriadPro-Regular'" font-size="12">X</text>
<text transform="matrix(1 0 0 1 336.3672 244.7744)" font-family="'MyriadPro-Regular'" font-size="12">X</text>
<text transform="matrix(1 0 0 1 336.3672 295.6211)" font-family="'MyriadPro-Regular'" font-size="12">X</text>
<text transform="matrix(1 0 0 1 336.3672 348.7285)" font-family="'MyriadPro-Regular'" font-size="12">X</text>
<text transform="matrix(1 0 0 1 148.2314 193.3618)" font-family="'MyriadPro-Regular'" font-size="12">Write some React</text>
<text transform="matrix(1 0 0 1 148.2314 244.7744)" font-family="'MyriadPro-Regular'" font-size="12">Stay hydrated</text>
<text transform="matrix(1 0 0 1 148.2314 295.6211)" font-family="'MyriadPro-Regular'" font-size="12">Get some fresh air</text>
<text transform="matrix(1 0 0 1 148.2314 348.7285)" font-family="'MyriadPro-Regular'" font-size="12">Remember to sleep enough</text>
<rect x="128.5" y="35.5" fill="#FFFFFF" stroke="#0000FF" stroke-miterlimit="10" width="234" height="65"/>
<text transform="matrix(1 0 0 1 140.5 53.0225)" fill="#ED1C24" font-family="'MyriadPro-Regular'" font-size="12">Red = App</text>
<rect x="134" y="166" fill="none" stroke="#009245" stroke-width="2" stroke-miterlimit="10" width="223" height="293"/>
<text transform="matrix(1 0 0 1 140.5 64.8872)" fill="#00FF00" font-family="'MyriadPro-Regular'" font-size="12">Light green = Add todos</text>
<text transform="matrix(1 0 0 1 140.5 77.8818)" fill="#006837" font-family="'MyriadPro-Regular'" font-size="12">Dark green = Todo List</text>
<text transform="matrix(1 0 0 1 141 90.311)" fill="#0000FF" font-family="'MyriadPro-Regular'" font-size="12">Blue = Todo Item</text>
</svg>
